<svg width="484" height="475" viewBox="0 0 484 475" fill="none" xmlns="http://www.w3.org/2000/svg">
<g clip-path="url(#clip0_21_47)">
<path d="M125.771 396.818C123.292 396.915 119.079 392.334 128.186 391.39C131.824 391.012 133.859 390.47 133.859 389.962C133.859 389.454 142.145 388.857 145.603 388.857C149.061 388.857 153.69 388.214 154.05 387.651C169.665 387.767 183.558 383.954 198.066 383.918C211.641 383.909 205.598 382.423 206.921 379.891C208.776 376.344 208.599 371.726 206.182 360.649C204.181 351.476 203.979 336.422 205.819 333.542C206.194 332.954 206.004 332.77 205.396 333.134C203.882 334.039 202.66 327.22 203.92 324.9C205.998 321.072 207.314 314.37 206.341 312.572C205.806 311.583 205.532 308.032 205.734 304.68C206.344 294.526 206.394 294.358 213.984 277.204C214.927 275.073 215.706 271.848 215.715 270.036C215.724 268.225 216.245 266.052 216.873 265.207C217.837 263.911 217.922 263.951 217.419 265.463C217.092 266.449 217.28 267.255 217.837 267.255C218.394 267.255 218.754 268.374 218.637 269.741C218.52 271.109 217.969 271.955 217.411 271.621C216.833 271.275 216.688 271.747 217.073 272.719C217.445 273.656 217.288 274.423 216.724 274.423C216.16 274.423 215.699 274.911 215.699 275.507C215.699 276.104 216.129 276.334 216.655 276.02C217.714 275.386 213.845 286.556 212.382 288.354C210.429 290.755 209.087 305.961 210.372 311.142C211.38 315.207 211.303 317.232 209.947 322.293C208.014 329.51 207.806 335.45 209.451 336.433C210.184 336.872 210.332 338.492 209.853 340.846C208.738 346.329 209.041 356.941 210.43 361.013C211.69 364.707 210.906 379.452 209.344 381.427C208.156 382.931 210.074 387.059 211.961 387.059C212.853 387.059 213.582 387.75 213.582 388.595C213.582 390.847 215.361 390.469 216.007 388.079C216.377 386.71 217.122 386.235 218.247 386.653C219.199 387.006 219.932 386.755 219.932 386.076C219.932 385.353 220.748 385.124 221.98 385.502C223.481 385.963 225.823 380.18 228.359 381.799L234.008 381.655L243.519 381.876C247.934 381.978 248.85 381.396 251.559 382.097C256.346 383.336 254.903 383.284 258.791 380.252C264.665 375.671 265.445 371.519 261.823 364.11C259.135 358.612 259.011 357.717 259.691 348.753C260.167 342.475 259.997 338.014 259.19 335.65C258.518 333.678 257.784 331.191 257.56 330.123C257.337 329.055 256.823 327.375 256.42 326.389C256.017 325.404 255.987 324.597 256.355 324.597C256.891 324.597 258.611 327.837 259.617 330.741C259.714 331.023 260.41 332.635 261.164 334.325C261.917 336.014 262.87 343.036 263.281 349.929C263.829 359.1 264.477 362.945 265.698 364.264C266.615 365.256 267.684 368.15 268.072 370.694C268.745 375.096 268.587 375.489 264.799 378.824C262.564 380.791 261.368 382.504 262.07 382.731C262.758 382.952 263.336 383.902 263.354 384.841C263.372 385.779 263.256 388.612 264.014 389.578C265.099 390.959 266.426 389.794 267.455 388.816C268.174 388.131 268.673 388.032 268.562 388.595C268.071 391.097 268.892 391.266 269.931 390.645C270.552 390.273 270.617 391.327 270.305 390.539C269.436 388.349 270.716 386.095 272.46 386.742C273.781 387.233 273.909 386.174 273.307 379.744C272.76 373.906 273.008 370.998 274.39 367.07C275.376 364.266 276.248 361.166 276.327 360.18C276.406 359.195 276.904 358.388 277.433 358.388C277.962 358.388 277.883 357.791 277.257 357.061C276.631 356.331 276.2 354.689 276.3 353.413C276.468 351.246 276.572 351.213 277.862 352.921C279.232 354.733 279.119 358.406 277.428 367.092C276.989 369.345 276.612 373.492 276.589 376.308C276.557 380.414 276.863 381.326 278.136 380.915C280.902 380.023 314.127 380.31 325.122 381.509C340.857 383.226 337.234 387.867 328.136 388.492C326.2 388.625 319.678 388.37 315.021 389.038C310.365 389.706 305.775 388.856 295.392 388.93C281.719 389.028 276.668 390.141 276.085 391.054C273.799 394.632 265.464 395.076 263.129 392.354C262.357 391.454 260.739 390.209 260.682 388.029C260.571 383.744 259.635 381.712 259.366 385.171C259.155 387.885 258.799 388.187 255.768 388.222C254.393 388.239 248.067 388.529 240.792 389.092C228.666 390.03 228.719 384.678 226.94 386.948C225.588 388.674 223.206 390.517 220.808 390.517C218.917 390.517 216.699 393.329 216.341 392.982C215.983 392.635 214.222 392.569 211.739 392.39C209.196 392.206 208.643 390.039 207.895 389.186C180.864 390.569 153.532 395.735 125.771 396.818ZM340.574 387.059C340.574 386.496 341.05 386.035 341.632 386.035C342.214 386.035 342.69 386.496 342.69 387.059C342.69 387.622 342.214 388.083 341.632 388.083C341.05 388.083 340.574 387.622 340.574 387.059ZM219.461 380.208L216.452 376.559L218.345 366.579C219.446 360.774 219.994 354.512 219.656 351.61C219.068 346.564 220.614 340.056 223.676 334.679C224.527 333.184 225.26 330.88 225.304 329.559C225.414 326.254 227.776 320.19 229.12 319.756C230.921 319.176 229.878 325.381 226.414 335.861C224.231 342.464 223.056 348.385 222.756 354.292C222.512 359.079 221.719 365.61 220.993 368.805C219.764 374.21 219.829 374.828 221.919 377.667C226.151 383.418 223.969 385.674 219.461 380.208ZM270.552 326.133C270.198 325.57 270.032 323.957 270.183 322.549C270.335 321.141 270.519 318.861 270.593 317.481C270.688 315.731 271.064 315.297 271.838 316.046C272.558 316.742 272.64 318.884 272.072 322.138C271.591 324.899 270.907 326.696 270.552 326.133H270.552ZM254.463 320.245C253.518 316.834 253.662 315.18 254.843 315.886C255.442 316.245 255.62 315.834 255.258 314.923C254.912 314.049 255.104 313.334 255.685 313.334C257.112 313.334 258.097 317.47 257.339 320.276C256.55 323.195 255.277 323.182 254.463 320.246V320.245ZM231.044 313.4C226.393 310.19 225.545 308.005 225.349 298.72C225.246 293.883 225.744 292.049 228.093 288.614C229.672 286.306 232.476 283.436 234.324 282.236C236.172 281.036 239.417 278.723 241.536 277.096C246.136 273.563 247.48 274.159 244.387 278.362C242.176 281.367 241.42 284.673 242.949 284.652C243.386 284.646 246.101 282.833 248.983 280.623C251.866 278.414 254.63 277.426 255.068 277.111C255.271 276.965 255.79 276.852 255.913 276.361C256.081 275.69 256.2 275.383 256.55 275.722C256.9 276.061 256.424 277.392 255.492 278.68C253.461 281.485 253.303 283.029 255.119 282.31C255.847 282.023 257.275 281.463 258.294 281.067C259.409 280.634 260.146 280.812 260.146 281.513C260.146 282.154 259.313 282.964 258.294 283.311C256.195 284.028 251.68 287.747 251.68 288.76C251.68 289.663 258.267 288.725 259.714 287.615C260.35 287.127 261.183 287.031 261.566 287.402C263.033 288.821 262.156 290.897 259.617 292.017C256.451 293.412 256.111 295.926 259.088 295.926C260.252 295.926 261.204 295.477 261.204 294.928C261.204 293.783 267.493 290.406 268.255 291.143C269.188 292.047 266.301 295.394 262.151 298.22C259.884 299.764 258.029 301.722 258.029 302.572C258.029 303.422 257.571 304.118 257.01 304.118C256.449 304.118 252.936 306.883 249.203 310.262C241.162 317.54 237.866 318.109 231.044 313.4V313.4ZM266.55 313.462C265.863 311.857 265.451 308.531 265.634 306.07C265.918 302.251 266.389 301.453 268.856 300.618C272.303 299.452 273.734 300.457 272.141 302.925C271.507 303.908 270.647 307.112 270.23 310.046C269.326 316.409 268.242 317.415 266.55 313.462ZM269.67 290.355C269.67 289.477 270.147 288.758 270.729 288.758C271.311 288.758 271.787 289.192 271.787 289.722C271.787 290.252 271.311 290.97 270.729 291.318C270.147 291.666 269.67 291.233 269.67 290.355ZM214.715 249.596C216.209 244.555 215.906 240.192 213.682 234.732C212.24 231.194 211.561 226.501 211.301 218.298C211.101 211.983 211.095 207.283 211.289 207.853C211.483 208.423 212.316 208.889 213.141 208.889C213.965 208.889 214.64 209.377 214.64 209.973C214.64 210.57 214.997 210.849 215.433 210.593C215.87 210.338 216.28 213.421 216.344 217.445C216.548 230.207 219.669 236.599 224.053 233.233C224.987 232.515 226.864 231.324 228.223 230.585C230.434 229.384 230.652 229.438 230.299 231.097C230.081 232.117 229.186 232.904 228.31 232.845C227.382 232.783 226.635 233.7 226.52 235.042C226.352 237.007 226.808 237.324 229.628 237.197C231.61 237.108 233.14 237.618 233.448 238.471C233.734 239.261 233.485 239.607 232.888 239.25C231.917 238.669 228.602 241.151 220.989 248.159C219.534 249.498 217.306 251.116 216.037 251.754C213.821 252.869 213.769 252.785 214.714 249.596H214.715ZM252.27 157.435C252.786 149.719 252.496 146.461 250.704 139.864C248.178 130.56 247.763 115.724 249.766 106.341C250.993 100.591 250.935 100.257 247.579 93.7938C245.185 89.184 243.667 87.3261 242.614 87.7171C241.78 88.0268 241.097 88.6485 241.097 89.0988C241.097 89.5489 240.261 89.7058 239.24 89.4473C238.218 89.1889 236.364 89.8954 235.12 91.0175C233.875 92.1396 232.491 92.7398 232.045 92.3513C231.599 91.9628 231.522 92.1362 231.875 92.7366C232.461 93.736 231.616 96.5932 228.718 103.411C228.101 104.863 227.998 107.069 228.479 108.531C228.943 109.944 229.887 112.759 230.577 114.785C231.597 117.786 231.511 119.699 230.114 125.09C229.17 128.731 228.398 132.691 228.398 133.889C228.398 135.086 227.977 136.319 227.462 136.626C226.947 136.934 226.207 139.381 225.818 142.063C224.744 149.455 223.128 153.595 221.315 153.595C219.954 153.595 219.809 152.633 220.429 147.707C220.837 144.469 222.029 139.918 223.079 137.595C226.352 130.35 227.684 119.973 225.954 115.196C221.81 103.76 229.986 86.7029 240.568 84.7074C242.314 84.3781 244.519 83.8178 245.469 83.4623C247.753 82.6068 250.998 87.7356 253.074 95.4795C254.442 100.581 254.454 101.996 253.165 106.138C251.257 112.274 251.252 128.211 253.156 134.722C253.969 137.499 254.666 140.463 254.704 141.307C254.743 142.152 255.155 147.815 255.62 153.891C256.46 164.874 256.056 166.906 253.033 166.906C251.931 166.906 251.77 164.907 252.269 157.435H252.27ZM237.737 159.909C237.636 158.689 237.409 156.193 237.235 154.363C236.073 142.173 237.754 99.9236 239.64 93.8925C240.686 90.5492 242.695 92.699 242.414 96.8604C242.266 99.0606 241.551 114.302 240.827 130.731C240.103 147.159 239.153 160.944 238.716 161.364C238.28 161.784 237.839 161.13 237.737 159.909Z" fill="#689689"/>
<path d="M238.981 474.446C238.108 474.164 236.777 473.747 236.025 473.518C234.96 473.195 234.926 472.616 235.869 470.909C237.413 468.119 235.785 466.966 230.27 466.944C226.966 466.93 226.217 467.334 225.677 469.414C224.933 472.282 223.967 472.74 218.889 472.636C214.21 472.54 213.652 470.407 217.247 466.362C218.722 464.703 219.93 462.807 219.931 462.15C219.931 461.493 220.31 460.802 220.772 460.614C221.893 460.158 226.281 450.098 226.281 447.982C226.281 446.702 226.839 446.493 228.663 447.086C229.972 447.512 233.109 447.888 235.634 447.923C240.171 447.984 240.253 448.051 242.735 453.617C244.115 456.714 245.264 460.055 245.288 461.041C245.312 462.026 245.806 462.833 246.388 462.833C246.97 462.833 247.457 463.409 247.47 464.113C247.482 464.817 248.425 466.545 249.563 467.953C252.778 471.93 252.265 473.735 247.711 474.463C243.205 475.184 241.254 475.18 238.981 474.446L238.981 474.446ZM253.182 470.284C251.611 468.764 251.101 464.876 252.474 464.886C252.91 464.889 255.084 465.38 257.305 465.977C263.657 467.684 271.378 465.095 265.702 463.162C261.045 461.576 254.351 458.396 253.08 457.166C251.103 455.253 251.244 449.521 253.267 449.521C254.14 449.521 254.855 448.858 254.855 448.048C254.855 446.302 261.538 445.116 268.612 445.607C272.65 445.887 273.427 446.295 273.719 448.287C274.049 450.539 273.846 450.608 268.827 449.964C265.323 449.514 263.342 449.683 262.836 450.475C261.823 452.061 264.156 454.641 266.604 454.641C270.755 454.641 277.09 457.912 277.732 460.388C278.906 464.913 277.368 467.595 272.273 469.913C266.619 472.484 255.676 472.697 253.182 470.284H253.182ZM205.059 468.713C203.071 467.416 200.918 465.335 200.276 464.089C199.633 462.843 198.317 460.977 197.35 459.943C196.383 458.909 195.592 457.595 195.592 457.023C195.592 456.451 194.716 455.215 193.646 454.278C191.797 452.66 191.638 452.773 190.471 456.542C189.795 458.725 189.242 461.785 189.242 463.342C189.242 466.065 189.075 466.153 184.922 465.614C182.546 465.305 180.388 464.846 180.127 464.593C179.866 464.341 180.325 462.804 181.148 461.179C185.371 452.836 187.584 440.305 184.833 440.305C184.154 440.305 183.89 440.023 184.247 439.678C185.456 438.508 195.739 441.529 196.378 443.242C196.721 444.161 198.351 446.592 200.001 448.645C201.65 450.697 203 452.814 203 453.35C203 453.885 203.875 455.09 204.944 456.026C206.79 457.642 206.958 457.525 208.257 453.716C209.01 451.509 209.317 448.51 208.938 447.052C208.148 444.006 208.177 443.997 213.989 445.61C219.556 447.155 219.528 447.125 217.499 449.294C216.556 450.302 214.658 455.462 213.28 460.76C211.903 466.059 210.304 470.546 209.726 470.732C209.148 470.919 207.048 470.01 205.059 468.713ZM285.412 468.465C285.238 467.79 284.877 463.418 284.525 457.713C284.049 449.99 283.74 449.521 279.123 449.521C274.477 449.521 274.571 449.626 275.994 446.004C276.815 443.914 277.742 443.377 280.533 443.377C282.463 443.377 286.838 442.673 290.256 441.811C293.674 440.95 298.234 440.031 300.389 439.769C302.545 439.506 306.024 438.599 308.121 437.751C310.217 436.903 312.125 436.21 312.361 436.21C312.596 436.21 313.093 438.053 313.465 440.306C314.294 445.317 315.397 445.503 317.109 440.922C317.824 439.008 320.434 435.636 322.908 433.43C328.416 428.517 337.627 426.11 344.199 427.866C348.01 428.884 348.127 428.846 346.51 427.118C344.218 424.667 344.318 424.367 347.905 422.929C349.609 422.246 351.826 420.808 352.831 419.733C355.002 417.412 356.448 417.216 356.448 419.244C356.448 421.603 363.161 433.247 365.102 434.256C367.572 435.539 370.111 434.37 370.824 431.62C371.874 427.574 365.142 416.882 360.681 415.509C359.695 415.206 361.018 414.166 364.169 412.768C366.96 411.53 370.111 409.731 371.17 408.772C375.445 404.898 384.218 397.79 385.119 397.47C385.647 397.282 386.079 396.476 386.079 395.678C386.079 393.639 387.099 393.871 389.394 396.432C391.937 399.268 391.938 399.262 388.196 400.524C384.716 401.698 384.271 403.083 386.447 405.963C387.817 407.776 387.97 407.757 390.31 405.493C392.106 403.755 393.175 403.397 394.376 404.13C396.629 405.505 397.166 407.539 395.276 407.539C392.316 407.539 391.388 413.077 394.175 414.112C396.149 414.845 402.993 410.789 403.004 408.879C403.019 406.518 404.824 406.612 406.169 409.044C407.736 411.878 408.062 411.451 397.594 420.285C393.889 423.412 390.528 425.97 390.127 425.97C389.725 425.97 389.127 425.164 388.799 424.178C387.663 420.774 375.55 408.366 373.909 408.926C372.17 409.519 373.176 412.096 378.334 420.264C381.836 425.81 383.862 428.041 385.449 428.099C387.005 428.155 387.193 428.354 386.079 428.764C385.206 429.086 384.254 429.636 383.963 429.987C382.918 431.247 377.662 434.162 376.434 434.162C375.745 434.162 373.562 435.775 371.584 437.746C369.605 439.717 367.057 441.329 365.921 441.329C364.785 441.329 363.856 441.821 363.856 442.422C363.856 443.575 359.519 442.679 358.564 441.329C358.273 440.918 357.002 440.27 355.739 439.889C353.983 439.359 353.279 439.698 352.742 441.336C351.673 444.594 354.002 446.449 359.161 446.449C364.651 446.449 365.756 447.708 362.886 450.689C360.629 453.033 354.248 454.474 345.663 454.58C342.933 454.614 340.432 455.059 340.106 455.569C338.303 458.391 321.525 457.482 321.525 454.562C321.525 454.042 320.846 453.617 320.015 453.617C319.185 453.617 318.252 452.811 317.943 451.825C317.633 450.84 317.554 451.416 317.766 453.105C317.979 454.795 318.491 457.214 318.904 458.481C319.505 460.322 319.248 460.785 317.627 460.785C316.512 460.785 315.147 461.197 314.594 461.701C314.041 462.205 311.993 462.943 310.044 463.341C306.775 464.008 306.554 463.895 307.212 461.89C307.925 459.717 304.055 444.825 302.273 442.883C301.702 442.261 301.113 442.75 300.731 444.163C300.271 445.864 299.33 446.449 297.053 446.449H293.992L294.669 452.337C295.041 455.575 295.939 459.943 296.663 462.042L297.98 465.86L294.143 466.45C292.033 466.775 289.48 467.476 288.469 468.009C286.405 469.096 285.606 469.215 285.412 468.465H285.412ZM340.521 448.551C342.715 447.207 342.448 440.828 340.092 438.309C338.698 436.818 336.822 436.21 333.615 436.21C329.522 436.21 329.04 436.479 328.444 439.104C327.646 442.622 329.195 446.926 331.784 448.383C334.153 449.717 338.48 449.8 340.521 448.551V448.551ZM169.135 461.114C167.098 460.261 165.306 459.447 165.153 459.307C165 459.166 165.595 457.383 166.476 455.343C168.27 451.188 168.537 448.497 167.156 448.497C166.649 448.497 164.387 450.34 162.129 452.592C159.871 454.844 157.741 456.688 157.395 456.688C157.049 456.689 155.501 455.638 153.955 454.352C151.845 452.598 151.119 451.004 151.04 447.953C150.982 445.718 150.607 442.754 150.207 441.367C149.484 438.857 149.468 438.863 147.138 442.512C145.85 444.529 144.795 447.392 144.795 448.874C144.795 451.968 144.813 451.963 139.362 450.383C135.09 449.145 134.16 447.821 136.858 446.82C137.732 446.495 138.446 445.588 138.446 444.804C138.446 444.019 138.922 443.377 139.504 443.377C140.086 443.377 140.562 442.793 140.562 442.079C140.562 441.365 141.728 439.12 143.154 437.091C146.09 432.909 147.678 428.018 146.098 428.018C144.297 428.018 137.311 431.11 133.299 433.682C131.183 435.04 128.815 437.546 128.039 439.252C126.315 443.041 125.647 443.067 118.593 439.613C112.744 436.75 112.146 435.359 116.036 433.659C117.313 433.101 118.624 431.834 118.949 430.843C119.274 429.852 119.984 429.042 120.527 429.042C121.655 429.042 121.797 424.182 120.834 418.546C120.292 415.368 119.746 414.706 117.671 414.706C116.292 414.706 115.164 414.246 115.164 413.682C115.164 411.365 110.426 408.256 106.192 407.794C101.838 407.319 101.698 407.402 99.4804 411.738C97.5447 415.524 97.4179 416.463 98.608 418.197C100.849 421.463 102.292 421.251 104.7 417.302C106.751 413.939 107.122 413.739 108.682 415.158C109.628 416.018 111.788 417.806 113.482 419.131L116.562 421.539L113.259 426.185C108.148 433.373 106.884 433.296 95.8552 425.118C88.9284 419.982 87.0478 416.013 88.1553 408.867C89.0929 402.817 89.6985 401.395 91.3369 401.395C92.0764 401.395 93.2743 400.704 93.9989 399.859C96.2065 397.285 105.054 397.864 109.645 400.883C111.787 402.291 113.92 403.443 114.387 403.443C114.853 403.443 116.901 405.056 118.939 407.027C120.976 408.998 122.871 410.611 123.151 410.611C123.431 410.611 125.314 411.647 127.336 412.914C130.088 414.64 131.015 415.943 131.025 418.102C131.04 421.451 132.736 424.946 134.345 424.946C134.959 424.946 136.284 423.963 137.289 422.761C139.047 420.661 139.258 420.641 142.75 422.248C144.748 423.167 147.733 425.044 149.383 426.418C151.033 427.793 153.747 429.207 155.414 429.561C158.091 430.131 158.521 430.765 159.095 435C159.453 437.636 159.834 440.447 159.943 441.245C160.315 443.978 162.336 443.399 166.752 439.294C169.182 437.034 171.732 435.186 172.418 435.186C173.104 435.186 175.74 436.188 178.275 437.413C182.276 439.346 182.701 439.854 181.491 441.253C179.569 443.476 176.225 458.2 177.062 460.752C177.618 462.447 177.29 462.817 175.292 462.749C173.943 462.703 171.173 461.967 169.135 461.114ZM114.106 392.644C114.106 391.774 115.309 387.281 116.779 382.661C121.449 367.979 122.295 365.285 125.845 353.78C129.672 341.375 129.675 341.368 130.693 342.353C131.085 342.733 130.367 346.381 129.098 350.46C119.371 381.712 115.79 391.863 116.347 391.532C141.324 376.848 167.229 359.996 191.912 344.955L197.308 341.083C198.739 339.415 205.116 337.355 205.116 338.809C205.116 339.303 203.688 340.281 201.942 340.981L195.857 344.999L184.48 351.651L133.424 383.503L114.603 394.227C114.367 394.361 114.106 393.515 114.106 392.644ZM363.818 392.319C362.239 391.686 327.337 370.532 318.073 365.32L311.452 361.596L285.717 346.415C284.346 345.606 283.508 344.658 283.83 344.346C293.047 348.364 303.202 354.974 310.016 358.978L358.504 387.135C360.974 388.866 363.257 390.027 363.579 389.716C364.281 389.037 362.086 381.649 357.468 369.14C355.596 364.071 353.696 358.542 353.244 356.852C352.792 355.163 349.489 345.717 345.903 335.861C342.317 326.005 336.563 309.647 333.117 299.51C329.671 289.373 325.351 276.786 323.517 271.54C321.622 266.118 320.587 261.64 321.119 261.166L435.883 179.641L430.996 179.978L302.12 171.616L297.632 171.879C294.781 171.142 294.225 169.331 296.982 169.717C298.721 169.961 313.914 170.627 327.875 171.071L438.788 178.655C439.113 178.97 438.459 179.927 437.334 180.782L328.933 258.136C325.217 260.773 323.028 261.931 323.23 263.033C323.649 265.326 337.827 307.532 341.731 317.993L348.227 335.861C349.165 338.958 352.388 348.405 355.39 356.852C363.743 380.358 367.15 391.456 366.256 392.249C365.809 392.646 364.712 392.677 363.818 392.319V392.319ZM119.419 342.542C118.571 341.553 118.393 339.576 118.892 336.664C119.798 331.369 121.175 328.644 123.881 326.787C125.607 325.603 125.805 324.634 125.197 320.357C124.313 314.134 125.641 312.28 130.903 312.391L134.742 312.471L131.7 313.542C128.784 314.569 128.683 314.82 129.269 319.607C129.797 323.915 129.543 324.927 127.42 326.981C124.101 330.192 122.855 332.636 122.413 336.799C121.994 340.754 124.451 342.592 125.411 339.041C126.112 336.446 127.387 336.254 128.318 338.602C129.661 341.989 121.894 345.428 119.419 342.542V342.542ZM278.527 324.802C275.989 320.095 277.713 303.723 283.67 295.2C287.698 289.437 287.024 289.592 290.311 285.025L294.44 279.636L297.674 275.21L301.547 271.159C302.728 269.924 304.327 267.329 306.052 265.4C308.594 262.559 309.32 261.359 310.159 257.122C310.931 253.595 310.339 252.286 309.13 247.492C307.434 243.594 305.002 242.516 303.684 241.967C300.082 240.467 298.724 240.291 296.777 240.247C289.596 240.317 271.157 239.425 265.291 242.432C263.952 243.227 265.773 242.341 260.29 245.005C259.854 245.217 257.111 246.847 257.111 245.973C257.111 245.098 258.872 243.739 261.196 242.455C265.85 239.883 266.213 238.583 263.823 233.049C262.649 230.329 262.394 227.568 262.888 222.906C263.303 218.987 263.036 214.129 262.201 210.391C261.45 207.031 260.949 201.625 261.086 198.378C261.224 195.131 261.059 191.631 260.722 190.6C260.159 188.884 255.34 186.851 250.104 186.12C248.947 185.959 247.841 185.025 247.646 184.046C247.374 182.683 248.016 182.266 250.386 182.266C260.002 182.266 263.573 186.741 263.866 199.161C263.973 203.667 264.64 209.657 265.35 212.473C266.158 215.679 266.375 220.183 265.929 224.523C265.366 230.011 265.572 231.974 266.915 233.959C268.297 237.237 269.58 239.596 272.859 238.919C275.332 237.685 295.031 236.543 298.772 237.56L301.539 238.313C306.289 239.604 311.952 243.86 312.742 251.27C313.329 256.776 311.126 263.918 309.662 264.998C306.721 270.207 304.576 271.944 301.428 275.193C299.094 277.588 297.185 279.771 297.185 280.045C297.185 280.319 295.131 283.198 292.621 286.443C285.149 296.101 283.468 299.714 281.235 310.913C279.195 321.138 278.341 321.225 280.123 324.144C281.046 326.524 285.453 327.598 285.528 329.109C284.075 331.334 279.694 326.966 278.527 324.802ZM251.127 326.292C247.743 324.425 245.121 321.827 241.359 320.527C239.776 319.98 238.099 318.238 236.389 319.691C233.895 321.811 230.25 323.095 230.25 321.69C230.25 321.549 231.338 320.037 232.234 319.733C233.383 319.345 234.854 318.746 235.541 318.357C236.769 317.663 237.833 316.787 238.528 317.216C240.589 318.485 243.808 319.483 247.427 321.397C252.063 323.931 257.176 327.732 257.455 328.436C258.09 330.038 258.534 330.381 251.127 326.292ZM141.704 310.518C142.474 309.532 143.971 307.804 145.031 306.678C146.09 305.551 147.934 303.363 149.128 301.814C151.075 299.662 153.687 298.727 154.944 296.435C155.642 295.148 157.105 292.719 158.933 291.31C160.761 289.901 163.011 288.059 163.933 287.217C165.525 285.622 167.939 285.941 169.553 284.838C169.851 284.371 172.856 283.405 176.229 282.692C185.541 280.724 186.579 280.117 189.786 274.769C191.419 272.044 193.429 269.428 194.251 268.954C195.074 268.481 196.891 266.851 198.29 265.331C199.689 263.812 203.697 260.974 207.197 259.024C210.696 257.075 213.565 254.915 213.571 254.226C213.577 253.536 214.892 252.305 216.493 251.491C218.093 250.676 220.168 249.166 221.104 248.136C225.642 243.14 228.842 241.509 234.605 241.254C237.043 241.147 237.096 240.952 236.619 233.757C236.062 225.371 235.21 224.006 228.465 220.695C225.809 219.391 222.058 216.423 220.13 214.099C218.201 211.774 216.177 210.139 215.632 210.465C215.087 210.791 214.641 210.57 214.641 209.973C214.641 209.377 213.935 208.889 213.073 208.889C212.211 208.889 211.215 207.766 210.859 206.394C210.286 204.187 207.434 202.655 207.695 205.009C208.411 211.455 205.212 206.737 203.535 204.798C202.78 203.926 201.596 203.763 201.235 204.111C200.875 204.46 201.363 205.036 202.319 205.391C204.615 206.243 205.308 211.459 204.17 213.759C203.541 215.032 199.608 211.308 195.128 207.321C192.977 205.408 191.27 201.724 189.855 199.114C187.885 195.479 189.708 194.696 186.142 194.554C184.007 194.468 181.805 194.187 181.253 193.739C178.865 191.803 172.097 190.255 170.935 191.379C169.299 192.962 161.497 192.78 150.49 190.902C144.136 189.817 139.206 189.551 135.271 190.08C122.454 191.802 118.339 191.082 118.339 187.117C118.339 185.981 117.506 184.463 116.489 183.743C113.643 181.729 115.798 180.737 118.835 182.663C120.308 183.597 121.514 185.272 121.514 186.385C121.514 188.033 122.234 188.41 125.389 188.41C127.521 188.41 131.817 187.631 134.937 186.68C140.298 185.044 140.895 185.049 145.813 186.76C152.15 188.965 168.207 189.569 168.876 187.628C169.396 186.118 176.136 185.919 177.072 187.386C177.951 188.762 186.068 188.701 186.068 187.318C186.068 186.718 185.658 185.451 185.157 184.503L184.737 172.44L43.7475 181.147C38.4927 181.795 37.4516 181.74 41.4109 184.153C70.0176 206.001 114.614 231.888 133.084 246.112C151.554 260.337 156.715 259.507 153.96 268.372C145.896 294.319 143.89 300.966 143.251 303.85C142.441 307.505 140.562 309.381 140.562 306.535C140.562 305.545 141.764 300.795 143.234 295.979C144.703 291.163 146.878 283.997 148.068 280.055C149.258 276.112 150.652 271.735 151.167 270.327C153.672 263.473 153.369 263.303 139.845 253.708C101.454 225.211 73.718 210.03 41.2881 187.45C37.7253 184.992 33.678 179.631 33.678 179.199C87.1425 175.158 133.026 172.699 184.07 169.986L185.41 166.299C186.369 163.659 189.321 161.191 190.922 159.787C196.614 154.119 199.769 150.116 207.854 149.109C215.308 148.301 219.359 147.042 219.359 149.756C221.055 151.279 222.899 151.377 223.317 152.745C223.927 150.973 230.742 155.775 232.497 159.059C235.597 164.858 234.942 165.414 230.25 160.587C225.797 156.007 225.686 155.962 218.995 156.058C212.802 156.147 212.153 156.369 211.235 158.715C209.931 162.042 210.792 170.991 212.515 172.021C213.251 172.461 213.513 173.354 213.098 174.005C211.99 175.738 214.511 178.17 217.416 178.17C219.866 178.17 220.644 179.188 219.236 180.55C218.853 180.921 217.88 180.695 217.074 180.048C215.97 179.161 215.307 179.163 214.384 180.057C213.456 180.955 213.627 181.242 215.088 181.242C216.724 181.242 216.806 181.487 215.632 182.856C214.485 184.194 214.508 184.63 215.767 185.401C217.86 186.682 218.929 186.589 222.434 184.82C226.029 183.006 226.282 182.974 226.282 184.336C226.282 184.912 225.091 185.907 223.636 186.549C219.526 188.361 220.445 189.172 227.505 189.965C231.088 190.367 235.732 191.378 237.823 192.211C241.765 193.781 246.389 197.353 246.389 198.828C246.389 200.48 242.903 199.641 241.015 197.534C239.585 195.939 237.399 195.252 232.425 194.838C228.755 194.532 225.276 193.923 224.694 193.485C222.682 191.969 212.065 190.584 210.719 191.661C210.017 192.223 208.918 192.369 208.277 191.986C206.775 191.087 201.942 192.249 201.942 193.509C201.942 195.239 206.249 198.408 209.441 199.026C212.554 199.628 216.526 203.029 224.881 212.246C227.312 214.928 230.884 217.772 232.818 218.564C238.032 220.702 240.403 224.034 241.238 230.392C242.624 240.958 242.444 242.002 238.888 243.96C237.099 244.946 234.101 245.752 232.227 245.752C226.336 245.752 223.766 247.688 220.78 254.377C218.235 260.077 217.702 260.625 214.42 260.905C212.18 261.096 208.875 262.719 205.596 265.238C202.713 267.453 198.83 270.311 196.966 271.589C195.103 272.866 193.096 274.933 192.507 276.182C190.875 279.642 183.504 284.307 178.431 285.09C171.332 286.186 159.611 292.096 159.611 294.58C159.611 296.061 143.227 312.31 141.734 312.31C140.543 312.31 140.538 312.009 141.704 310.518V310.518ZM200.883 196.601C200.883 196.038 200.169 195.578 199.296 195.578C198.423 195.578 197.709 196.038 197.709 196.601C197.709 197.165 198.423 197.625 199.296 197.625C200.169 197.625 200.883 197.165 200.883 196.601ZM212.524 188.41C212.524 187.847 212.076 187.386 211.528 187.386C210.981 187.386 210.238 187.847 209.878 188.41C209.519 188.973 209.967 189.434 210.874 189.434C211.782 189.434 212.524 188.973 212.524 188.41ZM200.883 185.398C200.883 184.19 198.819 182.898 198.061 183.631C197.303 184.365 198.639 186.362 199.887 186.362C200.435 186.362 200.883 185.928 200.883 185.398ZM208.966 174.009C208.226 170.432 205.113 165.531 205.122 167.959C205.126 168.788 205.624 171.194 206.23 173.306C207.569 177.972 209.909 178.574 208.966 174.009ZM154.778 311.397C155.476 310.304 168.666 304.764 170.127 304.118C170.601 303.908 171.227 303.712 171.252 303.296C171.332 301.983 180.958 298.982 185.009 299.047L188.713 299.106L183.489 301.612C180.616 302.99 176.94 303.4 175.817 304.118C175.309 304.443 173.828 304.757 173.368 305.142C172.929 305.511 172.535 306.172 171.517 306.179C170.498 306.185 166.859 307.568 163.43 309.251C157.273 312.272 153.644 313.172 154.778 311.397V311.397ZM277.991 278.411C277.78 273.565 277.95 269.188 278.369 268.684C283.812 262.138 286.596 259.558 289.462 258.399C293.754 256.664 294.01 256.673 294.01 258.551C294.01 259.396 293.138 260.087 292.071 260.087C287.799 260.087 280.351 272.513 280.179 279.927C280.137 281.687 279.715 284.048 279.24 285.175C278.666 286.535 278.246 284.262 277.991 278.411ZM246.389 204.221C246.389 203.343 246.873 202.914 247.464 203.268C248.056 203.621 248.266 204.34 247.931 204.864C247.024 206.284 246.389 206.019 246.389 204.221ZM102.804 193.231C102.501 192.757 103.134 191.723 104.211 190.934C106.017 189.61 105.897 189.496 102.654 189.466C99.5295 189.437 99.3154 189.263 100.726 187.898C101.599 187.053 103.681 186.362 105.353 186.362C107.024 186.362 108.933 185.837 109.596 185.196C110.497 184.324 111.618 184.821 114.041 187.165C118.868 191.836 117.896 196.521 112.814 193.077C109.866 191.079 108.815 191.061 108.815 193.006C108.815 194.638 103.822 194.825 102.804 193.231ZM12.5127 185.263L1.27673 180.589C-0.289555 179.938 -0.539271 179.281 1.22951 174.967C2.00826 173.068 3.47629 169.326 4.49182 166.65C6.45149 161.488 7.407 159.843 10.7587 162.294C12.5636 163.615 11.5906 164.342 11.3387 166.489C11.1799 167.842 9.04227 173.31 9.52079 172.002C9.75175 171.371 12.9337 174.113 13.4362 172.712C14.403 170.017 15.2168 166.468 17.3909 167.015C21.6654 168.092 17.1748 172.164 18.2369 174.606C19.2753 176.993 21.5336 177.045 23.0571 172.652C23.9665 170.03 24.3054 168.468 25.7567 168.033C26.821 167.714 28.7217 168.472 29.5536 169.14C31.4236 170.642 29.4256 171.915 27.2086 178.882L25.2119 185.156C23.9346 189.17 22.9278 189.375 12.5128 185.263L12.5127 185.263ZM461.915 183.034C458.715 176.013 455.742 166.996 456.326 166.082C456.661 165.557 458.769 164.844 461.01 164.497C463.251 164.15 467.905 162.483 471.352 160.792C478.533 157.268 479.206 157.132 479.206 159.198C479.206 160.026 480.42 163.36 481.904 166.607C484.879 173.116 484.675 177.146 481.369 177.146C479.854 177.146 479.256 176.304 479.009 173.818C478.757 171.294 478.115 170.413 476.352 170.17C474.249 169.881 474.083 170.19 474.622 173.399C475.107 176.294 474.809 177.159 473.004 178.094C471.067 179.097 470.707 178.911 470.108 176.602C469.601 174.648 468.84 174.045 467.172 174.275C465.354 174.526 464.984 175.179 465.253 177.658C465.437 179.348 466.245 181.714 467.05 182.917C468.674 185.343 468.163 186.362 465.322 186.362C464.206 186.362 462.81 184.999 461.915 183.034ZM234.451 181.775C231.283 178.708 230.515 177.203 230.515 174.056C230.515 169.528 231.363 166.906 232.828 166.906C233.426 166.906 233.559 168.222 233.145 170.046C232.353 173.537 234.281 179.194 236.264 179.194C236.957 179.194 238.546 178.273 239.795 177.146C241.045 176.02 242.984 175.098 244.104 175.098C245.252 175.098 246.383 174.204 246.695 173.05C247 171.924 248.008 171.002 248.935 171.002C249.863 171.002 250.622 170.323 250.622 169.492C250.622 167.911 256.294 165.084 267.047 161.306C274.849 158.565 282.178 153.625 281.549 151.53C281.299 150.695 280.255 148.168 279.231 145.915C264.99 111.203 255.012 83.0725 241.423 47.7756C240.371 45.0483 239.174 41.0706 238.592 41.2592C238.01 41.4479 236.632 45.5799 235.701 48.1185C231.545 57.1374 229.467 64.433 225.792 73.2136C224.609 76.0137 222.559 81.2004 215.674 98.8127C214.353 102.192 212.673 106.339 211.94 108.028C211.207 109.718 209.747 113.404 208.697 116.22C203.039 129.798 197.227 146.088 193.37 155.181C186.487 163.61 204.142 122.499 207.58 113.138C211.162 103.19 221.166 77.3337 223.027 73.2136C226.412 64.2666 230.94 54.8292 233.779 46.8446C234.995 43.351 236.625 39.3304 237.4 37.9098L238.809 35.3268L241.089 40.4467C247.618 57.3017 253.57 73.718 259.664 89.597L265.652 104.814L270.405 117.613L276.963 134.14L280.243 142.843C281.789 145.622 281.92 148.295 284.945 150.304C288.291 146.739 298.779 140.441 301.926 139.681C303.66 139.262 310.385 136.972 316.869 134.591C327.797 130.579 329.266 130.292 336.942 130.66C341.496 130.879 345.963 131.276 346.867 131.543C347.771 131.81 350.248 131.641 352.372 131.167C354.495 130.694 356.773 130.63 357.434 131.025C360.984 133.148 352.469 138.747 346.039 138.518C342.821 138.403 343.132 138.233 344.062 140.106C345.332 142.665 344.986 144.794 345.272 147.357C345.51 149.49 342.506 148.604 341.732 147.824C339.011 145.085 336.965 144.561 336.123 143.818C332.023 140.198 328.513 140.008 322.714 144.123C304.733 160.348 298.589 164.859 294.466 164.859C291.28 164.859 293.419 161.42 297.187 160.485C301.509 159.411 305.583 156.557 311.472 150.475C323.655 137.892 323.041 138.306 329.457 138.38C333.131 138.422 336.041 138.917 336.896 139.943C344.257 148.774 344.742 145.537 340.099 138.514C339.586 137.739 339.65 135.553 340.706 135.521C364.493 134.799 341.321 132.861 334.004 132.861C328.424 132.862 326.232 133.441 320.467 136.43C316.684 138.392 310.969 140.824 307.768 141.834C301.852 143.699 289.683 149.263 288.719 150.542C288.428 150.928 285.333 153.472 281.84 156.194C278.348 158.917 274.907 161.927 274.194 162.883C273.48 163.839 271.239 164.922 269.212 165.29C262.269 166.55 253.105 172.902 254.21 175.689C254.895 177.416 253.639 177.609 252.005 176.027C251.168 175.217 250.158 175.325 248.354 176.417C246.982 177.247 244.562 178.218 242.976 178.573C240.887 179.042 239.858 180.097 239.24 182.402L238.388 185.584L234.451 181.775ZM29.7725 160.89L17.0758 154.039L15.6875 156.635L14.1867 158.715L9.33795 155.496C6.85409 153.847 19.9385 132.092 21.4464 132.092C23.7282 132.092 24.399 134.011 25.805 136.349C27.3629 138.939 21.5895 142.851 22.5701 143.307L31.5614 147.485L35.7945 148.868L40.0291 150.279C40.4353 150.414 38.7204 153.678 37.1189 156.909C34.092 163.016 33.2943 162.79 29.7725 160.89ZM455.695 161.988C453.521 161.131 448.274 153.363 446.299 148.078C444.748 143.928 445.723 141.068 448.894 140.464C450.288 140.199 450.64 141.012 450.667 144.56C450.703 149.291 452.812 153.063 455.022 152.35C455.938 152.055 456.383 149.608 456.412 144.722C456.439 140.184 456.99 136.902 457.906 135.834C459.418 134.07 464.39 133.465 464.39 135.044C464.39 135.542 465.248 136.166 466.297 136.431C467.345 136.696 469.607 139.51 471.323 142.684C473.75 147.171 474.192 148.841 473.31 150.195C471.3 153.283 469.946 152.763 468.475 148.34C466.132 141.297 464.393 142.078 464.375 150.182C464.351 160.476 461.544 164.295 455.695 161.988ZM439.693 136.764C436.335 130.128 436.324 130.044 438.879 130.044C440.484 130.044 442.167 128.236 442.167 126.511C442.167 126.349 440.303 125.976 438.024 125.68C432.612 124.977 425.241 119.446 423.718 116.129C423.062 114.7 421.901 112.903 421.582 112.027C420.618 109.388 418.524 101.741 419.921 98.185C428.177 89.2595 431.239 91.8812 436.105 92.4964C441.488 93.6113 446.162 99.7574 448.083 103.797C450.216 108.283 450.602 109.92 450.011 114.684C449.628 117.782 448.828 120.903 448.235 121.621C447.642 122.338 447.385 123.147 447.665 123.417C448.414 124.142 454.866 120.838 454.866 119.729C454.866 117.442 457.116 119.114 459.099 122.876C460.287 125.129 461.725 126.972 462.295 126.972C462.866 126.972 463.332 127.433 463.332 127.996C463.332 128.559 462.599 129.02 461.703 129.02C457.37 129.02 444.283 137.946 444.283 140.901C444.283 143.836 442.424 142.16 439.693 136.764ZM437.429 114.925C439.166 113.718 442.167 108.749 442.167 107.08C442.167 104.558 437.77 101.373 434.289 101.373C431.689 101.373 430.759 101.994 429.617 104.489C428.031 107.955 428.749 114.227 430.824 115.041C432.811 115.82 436.227 115.76 437.429 114.925ZM26.7274 121.039C32.4281 97.9019 58.7478 105.745 57.4614 122.673C53.9097 144.666 23.6828 139.394 26.7274 121.039ZM37.7844 126.507C43.3156 128.905 52.2006 125.161 47.489 117.07C41.4966 110.786 29.6875 120.135 37.7844 126.507ZM62.6809 111.768C63.5347 110.431 50.7601 98.3008 48.4986 98.3008C47.4005 98.3008 46.2048 97.8354 45.8415 97.2667C45.1757 96.2242 51.4225 86.0132 52.7261 86.0132C53.1117 86.0132 54.103 87.2416 54.9289 88.7431C56.4204 91.4546 67.174 100.742 69.8045 101.59C70.7797 101.905 70.1579 103.573 67.6627 107.335C65.729 110.251 63.6922 112.636 63.1365 112.636C62.5808 112.636 62.3758 112.245 62.6809 111.768ZM71.7754 99.9336C71.7754 98.6762 69.2056 95.2362 62.4861 87.4984C61.4837 86.3442 59.8302 85.0915 58.8117 84.7146C56.5434 83.8755 56.3825 81.3267 58.5471 80.523C60.7822 79.0864 62.4111 72.8358 65.3591 74.1977C65.9779 74.5677 66.4841 75.5128 66.4841 76.2979C66.4841 78.4592 76.056 88.0611 78.2105 88.0611C80.0089 88.0611 83.4652 84.2279 84.715 80.8472C85.0489 79.9441 83.3067 76.4285 80.6555 72.6555C78.1011 69.0202 76.0105 65.3546 76.0098 64.5099C76.0084 62.9438 88.6707 53.2462 90.7169 53.2462C91.3357 53.2462 92.1565 54.4586 92.5409 55.9405C93.0441 57.8805 92.7535 58.898 91.5028 59.5752C89.4908 60.6647 89.112 63.9637 91.0887 63.1817C91.8162 62.8939 93.1861 62.3563 94.1329 61.9871C95.3965 61.4943 96.0453 62.0522 96.5725 64.0849C96.9755 65.6383 96.8005 67.3284 96.174 67.9347C95.5597 68.529 95.0571 69.6143 95.0571 70.3465C95.0571 72.5386 98.3488 71.8546 100.97 69.1177C104.066 65.8853 106.035 65.8723 107.543 69.0744C108.592 71.3017 108.373 71.8607 105.64 73.9382C103.941 75.2292 100.066 78.4742 97.0296 81.1493C93.9927 83.8244 91.1006 86.0132 90.6028 86.0132C90.1049 86.0132 89.2669 84.9764 88.7406 83.7092C87.8617 81.5936 87.7774 81.5727 87.7088 83.4533C87.6677 84.5796 84.5421 88.6839 80.763 92.5739C76.9839 96.464 73.8919 100.035 73.8919 100.51C73.8919 100.984 73.4157 101.373 72.8336 101.373C72.2516 101.373 71.7754 100.725 71.7754 99.9336L71.7754 99.9336ZM408.11 95.7408C407.447 94.3329 406.321 93.1809 405.609 93.1809C404.896 93.1809 403.464 91.9137 402.427 90.365C401.389 88.8163 399.668 86.8039 398.601 85.893C396.398 84.0123 396.119 82.9413 397.832 82.9413C398.476 82.9413 399.939 81.7893 401.084 80.3813C402.228 78.9734 403.845 77.8214 404.675 77.8214C405.506 77.8214 406.186 77.3844 406.186 76.8502C406.186 76.316 407.388 74.624 408.857 73.0901C410.326 71.5563 411.815 69.1968 412.165 67.8469C412.786 65.4524 412.915 65.5049 417.431 70.0008C422.435 74.9829 422.863 75.7735 420.554 75.7735C419.726 75.7735 416.827 78.2898 414.112 81.3652C409.926 86.1061 409.277 87.409 409.849 89.9275C410.249 91.6889 411.579 93.3634 413.117 94.0415C416.095 95.3546 416.456 96.7809 414.036 97.6792C410.924 98.835 409.32 98.3104 408.11 95.7408ZM392.811 80.3813C392.476 79.5366 391.658 78.8278 390.993 78.8064C389.467 78.7571 378.671 69.0772 378.671 67.7584C378.671 67.2202 379.862 66.4907 381.317 66.1373C382.772 65.7839 383.967 64.9276 383.973 64.2344C383.979 63.5411 385.645 60.9507 387.677 58.478C389.708 56.0052 391.37 53.1253 391.37 52.0782C391.37 51.0311 391.64 50.1743 391.969 50.1743C393.36 50.1743 397.408 52.7368 400.302 55.4496C402.613 57.6162 402.966 58.3661 401.674 58.3661C400.718 58.3661 399.08 59.573 398.034 61.0482C396.988 62.5234 395.109 64.7215 393.859 65.9329C392.609 67.1443 391.418 69.1132 391.213 70.3081C390.812 72.6536 394.018 76.7975 396.234 76.7975C398.599 76.7975 399.068 78.9247 397.032 80.4169C394.498 82.2748 393.559 82.2669 392.811 80.3813V80.3813ZM372.057 65.9721C370.456 65.1319 369.147 63.9984 369.147 63.4532C369.147 62.908 368.433 62.4619 367.559 62.4619C366.686 62.4619 365.972 61.7708 365.972 60.926C365.972 60.0812 366.701 59.39 367.593 59.39C368.484 59.39 369.514 58.5837 369.882 57.5981C370.249 56.6125 372.085 53.5022 373.962 50.6863C375.838 47.8704 377.69 44.5533 378.077 43.3149C378.843 40.8585 379.716 41.0008 385.808 44.5759C389.781 46.9078 390.134 48.0954 387.083 48.8673C385.754 49.2037 384.677 50.5552 384.305 52.3554C383.971 53.9717 383.281 55.2942 382.772 55.2942C382.263 55.2942 381.846 55.9853 381.846 56.8301C381.846 57.6749 381.422 58.3661 380.905 58.3661C380.387 58.3661 379.33 60.4396 378.557 62.9739C377.028 67.986 376.424 68.2644 372.057 65.9721ZM144.637 44.1112C145.541 45.0579 146.912 46.6403 146.912 47.3609C142.268 53.4661 132.579 57.259 125.42 57.2812C120.365 57.2343 119.189 55.9918 117.593 54.4367C116.093 52.9742 114.611 51.3632 114.294 46.5355C113.534 37.115 119.497 29.8053 128.921 27.6471C130.644 27.2797 133.039 26.5487 134.135 28.5296C135.469 30.9424 133.869 33.0115 129.182 34.9314C124.882 36.6932 122.924 41.4096 124.82 45.4375C125.876 47.6789 126.782 48.1264 130.263 48.1264C133.837 48.1264 134.325 47.8678 133.647 46.3345C132.096 42.8258 131.953 39.2235 133.225 38.3566C134.045 37.7973 136.023 35.3361 139.154 38.6455C142.134 41.5074 143.722 43.1531 144.637 44.1112V44.1112ZM170.968 16.7128C181.799 25.8688 176.043 49.8588 151.645 36.7906C133.514 17.1643 161.359 7.58746 170.968 16.7128ZM164.474 22.1205C155.137 17.858 151.595 28.045 157.395 30.351C167.245 34.2669 168.431 23.927 164.474 22.1205ZM353.061 53.3272C349.57 49.3821 349.04 47.0183 349.04 35.3941C349.04 22.2807 349.497 21.5638 354.96 26.1099C356.651 27.5172 358.395 28.6691 358.835 28.6698C359.275 28.6705 359.319 32.6426 358.934 37.4967L358.233 46.3222L360.698 45.0455C364.596 43.027 369.147 37.6527 369.147 35.068V32.7056L372.586 35.0367C374.478 36.3188 376.232 37.4924 376.484 37.6447C377.038 37.979 368.441 46.0785 367.532 46.0785C367.181 46.0785 365.692 47.4608 364.222 49.1504C362.753 50.8399 360.93 52.2223 360.171 52.2223C359.412 52.2223 358.517 52.9134 358.182 53.7582C357.345 55.8683 355.146 55.6832 353.061 53.3272H353.061ZM330.611 41.4887C328.524 39.5275 326.816 37.2359 326.816 36.3963C326.816 34.5081 322.415 25.5992 321.482 25.5992C320.702 25.5992 318.35 32.7299 318.35 35.0938C318.35 36.4233 317.768 36.4983 314.646 35.5712C310.294 34.2786 310.111 33.0961 313.37 27.3322C316.618 21.5892 318.208 16.1233 317.569 12.8922C317.254 11.295 317.524 10.2397 318.25 10.2397C320.894 10.2397 327.757 15.699 328.962 18.7616C334.139 31.9213 336.073 33.1982 337.127 24.1523C337.712 19.1338 338.815 18.4886 342.969 20.7353C344.271 21.4393 345.514 22.1111 345.733 22.2283C345.951 22.3455 344.641 25.4268 342.822 29.0756C341.004 32.7244 339.516 36.3926 339.516 37.2273C339.516 39.0192 336.124 45.0387 335.109 45.048C334.722 45.0515 332.698 43.4499 330.611 41.4887ZM298.772 33.1361C294.765 31.632 286.295 29.9332 281.987 29.7698C280.301 29.7058 280.122 29.1568 280.741 25.9616C281.55 21.792 280.44 20.521 275.967 20.495C272.622 20.4756 270.729 22.2095 270.729 25.292C270.729 27.3531 270.205 27.6471 266.537 27.6471C264.232 27.6471 261.742 27.022 261.005 26.2581C259.992 25.2084 258.765 25.1092 255.985 25.852C253.961 26.3927 249.345 26.6526 245.726 26.4297C240.323 26.0968 238.76 25.5743 236.982 23.5078C235.317 21.5718 234.81 21.3778 234.783 22.6666C234.718 25.7669 227.857 27.8962 219.284 27.4773C214.991 27.2676 211.347 27.4801 211.185 27.9496C211.024 28.419 208.759 29.0425 206.152 29.3351C203.545 29.6277 199.617 30.5195 197.423 31.317C191.889 33.3278 185.357 33.1729 182.996 30.975C181.937 29.9894 180.743 27.1095 180.342 24.5752C179.941 22.0409 178.819 17.8018 177.848 15.1549C176.878 12.5081 176.426 10.0116 176.844 9.60725C177.262 9.20287 180.178 8.66543 183.325 8.41295L189.046 7.9539L189.06 11.9127C189.087 19.6068 190.347 23.5235 193.003 24.1685C196.041 24.9062 197.709 24.0047 197.709 21.6253C197.709 18.9046 194.358 9.83115 193.042 8.98885C192.211 8.45653 192.216 7.74103 193.062 6.42894C193.927 5.08647 195.596 4.60785 199.411 4.60785H204.587L205.717 9.72768C206.338 12.5436 207.144 15.5387 207.507 16.3835C207.87 17.2282 208.316 18.815 208.497 19.9097C208.787 21.6624 209.584 21.8661 215.173 21.6158C218.664 21.4595 221.726 21.1322 221.978 20.8884C222.81 20.0841 219.896 17.938 216.446 16.8149C209.795 14.6494 208.802 6.12479 214.812 2.78725C216.83 1.66676 220.257 1.02397 224.214 1.02397C229.442 1.02397 230.63 1.36622 231.622 3.1596C232.271 4.33419 232.645 5.37096 232.452 5.46352C232.26 5.55608 231.037 6.2078 229.735 6.91177C228.434 7.61575 226.529 8.22932 225.502 8.27526C224.356 8.32658 224.963 8.92009 227.075 9.81414C228.967 10.6146 230.515 11.729 230.515 12.2905C230.515 12.8521 231.239 13.3116 232.125 13.3116C233.01 13.3116 234.254 14.4129 234.887 15.759C236.171 18.4839 238.866 20.0369 244.008 21.013C246.958 21.5732 247.447 21.3774 247.447 19.6369C247.447 18.3143 246.369 17.2441 244.351 16.5633C241.013 15.4377 238.469 12.3395 237.39 8.08801C236.387 4.13579 241.774 0 247.925 0C256.102 0 259.088 0.992988 259.088 3.71188C259.088 5.3755 258.483 6.1438 257.174 6.1438C256.121 6.1438 254.335 6.80994 253.205 7.62411C251.239 9.04126 251.299 9.15522 254.622 10.295C258.683 11.6876 261.676 16.4735 260.741 20.0776C259.875 23.4151 262.516 23.335 264.379 19.9673C265.158 18.5594 266.191 17.4074 266.674 17.4074C267.158 17.4074 267.554 16.8232 267.554 16.1092C267.554 15.3951 268.744 13.1156 270.2 11.0437C271.655 8.97167 272.845 6.33039 272.845 5.17415C272.845 3.29479 273.498 3.07188 278.999 3.07188H285.153L287.476 9.47167C288.754 12.9916 289.794 16.9328 289.788 18.2301C289.779 20.4059 294.75 27.647 296.254 27.647C297.043 27.6471 298.956 20.7019 299.921 14.3355C300.714 9.10423 301.633 8.2295 306.358 8.2074C313.182 8.1755 314.237 9.56551 311.394 14.8421C310.485 16.5286 309.234 21.7125 308.613 26.3617C307.343 35.8841 306.902 36.1875 298.773 33.1361L298.772 33.1361Z" fill="#F4E8C1"/>
</g>
<defs>
<clipPath id="clip0_21_47">
<rect width="484" height="475" fill="white"/>
</clipPath>
</defs>
</svg>
