<svg width="43" height="49" viewBox="0 0 43 49" fill="none" xmlns="http://www.w3.org/2000/svg">
<path d="M42.5412 0.953491V41.1818C42.5412 45.0968 40.634 48.0465 38.2503 48.0465H6.43019C2.49416 48.0465 0.75293 45.5133 0.75293 38.0171V9.11759H6.26392V0.954007H42.5398L42.5412 0.953491ZM6.26495 13.0667H3.38244V38.0161C3.38244 41.8477 3.99233 43.68 4.7685 43.68C5.71094 43.68 6.26529 41.8477 6.26529 38.0161L6.26495 13.0667ZM39.9134 4.90308H8.89274V38.0151C8.89274 40.6808 8.5602 42.5961 8.06138 44.0959H38.2513C39.249 44.0959 39.9144 42.3466 39.9144 41.1802L39.9134 4.90308ZM21.0656 21.2771H13.3722V19.7778H21.0656V21.2771ZM21.0656 26.1916H13.3722V24.6922H21.0656V26.1916ZM21.0656 30.9395H13.3722V29.4402H21.0656V30.9395ZM21.0656 35.521H13.3722V34.0217H21.0656V35.521ZM15.0788 12.0317H33.5384V14.8093H15.0788V12.0317ZM23.8374 19.7778H35.6448V33.9444H23.8374V19.7778Z" fill="#AA5042"/>
</svg>
